<svg width="52" height="71" viewBox="0 0 52 71" fill="none" xmlns="http://www.w3.org/2000/svg">
<g clip-path="url(#clip0)">
<path d="M51.4059 4.02824V67.578C51.4059 69.3317 49.9891 70.7485 48.2354 70.7485H3.51134C1.75768 70.7369 0.34082 69.3201 0.34082 67.578V4.02824C0.34082 2.27458 1.75768 0.857719 3.51134 0.857719H48.247C49.9891 0.857719 51.4059 2.27458 51.4059 4.02824Z" fill="url(#paint0_linear)"/>
<path d="M48.153 6.70305V64.8916C48.153 66.4973 46.908 67.7946 45.3671 67.7946H6.06907C4.52817 67.784 3.2832 66.4867 3.2832 64.8916V6.70305C3.2832 5.09733 4.52817 3.8 6.06907 3.8H45.3773C46.908 3.8 48.153 5.09733 48.153 6.70305Z" fill="url(#paint1_linear)"/>
<path d="M20.1081 14.2831V17.1749C20.1081 17.3839 19.9455 17.5465 19.7365 17.5465H16.1943C15.9853 17.5465 15.8227 17.7091 15.8227 17.9181V21.4603C15.8227 21.6693 15.6601 21.8319 15.4511 21.8319H12.5593C12.3502 21.8319 12.1876 21.6693 12.1876 21.4603V17.9181C12.1876 17.7091 12.025 17.5465 11.816 17.5465H8.28545C8.07641 17.5465 7.91382 17.3839 7.91382 17.1749V14.2831C7.91382 14.074 8.07641 13.9114 8.28545 13.9114H11.8276C12.0367 13.9114 12.1992 13.7488 12.1992 13.5398V9.99764C12.1992 9.7886 12.3618 9.62601 12.5709 9.62601H15.4627C15.6717 9.62601 15.8343 9.7886 15.8343 9.99764V13.5398C15.8343 13.7488 15.9969 13.9114 16.2059 13.9114H19.7365C19.9455 13.9114 20.1081 14.074 20.1081 14.2831Z" fill="url(#paint2_linear)"/>
<path opacity="0.5" d="M43.4275 30.0428H8.31946C8.08719 30.0428 7.90137 29.8569 7.90137 29.6247V28.2891C7.90137 28.0568 8.08719 27.871 8.31946 27.871H43.4275C43.6597 27.871 43.8455 28.0568 43.8455 28.2891V29.6247C43.8339 29.8569 43.6597 30.0428 43.4275 30.0428Z" fill="url(#paint3_linear)"/>
<path d="M43.4274 13.4004H26.007C25.7747 13.4004 25.5889 13.2146 25.5889 12.9823V11.6584C25.5889 11.4261 25.7747 11.2403 26.007 11.2403H43.4274C43.6597 11.2403 43.8455 11.4261 43.8455 11.6584V12.994C43.8339 13.2146 43.6597 13.4004 43.4274 13.4004Z" fill="url(#paint4_linear)"/>
<path opacity="0.5" d="M38.2709 19.0446H26.007C25.7747 19.0446 25.5889 18.8588 25.5889 18.6266V17.291C25.5889 17.0587 25.7747 16.8729 26.007 16.8729H38.2709C38.5032 16.8729 38.689 17.0587 38.689 17.291V18.6266C38.6774 18.8588 38.5032 19.0446 38.2709 19.0446Z" fill="url(#paint5_linear)"/>
<path opacity="0.5" d="M43.4275 36.3838H8.31946C8.08719 36.3838 7.90137 36.198 7.90137 35.9657V34.6301C7.90137 34.3979 8.08719 34.2121 8.31946 34.2121H43.4275C43.6597 34.2121 43.8455 34.3979 43.8455 34.6301V35.9657C43.8339 36.198 43.6597 36.3838 43.4275 36.3838Z" fill="url(#paint6_linear)"/>
<path opacity="0.5" d="M43.4275 42.7248H8.31946C8.08719 42.7248 7.90137 42.539 7.90137 42.3068V40.9712C7.90137 40.7389 8.08719 40.5531 8.31946 40.5531H43.4275C43.6597 40.5531 43.8455 40.7389 43.8455 40.9712V42.3184C43.8339 42.539 43.6597 42.7248 43.4275 42.7248Z" fill="url(#paint7_linear)"/>
<path opacity="0.5" d="M43.4275 49.0775H8.31946C8.08719 49.0775 7.90137 48.8917 7.90137 48.6594V47.3238C7.90137 47.0916 8.08719 46.9058 8.31946 46.9058H43.4275C43.6597 46.9058 43.8455 47.0916 43.8455 47.3238V48.6594C43.8339 48.8917 43.6597 49.0775 43.4275 49.0775Z" fill="url(#paint8_linear)"/>
<path opacity="0.5" d="M43.4275 55.4186H8.31946C8.08719 55.4186 7.90137 55.2327 7.90137 55.0005V53.6649C7.90137 53.4326 8.08719 53.2468 8.31946 53.2468H43.4275C43.6597 53.2468 43.8455 53.4326 43.8455 53.6649V55.0005C43.8339 55.2327 43.6597 55.4186 43.4275 55.4186Z" fill="url(#paint9_linear)"/>
<path opacity="0.5" d="M43.4275 61.7596H8.31946C8.08719 61.7596 7.90137 61.5738 7.90137 61.3415V60.0059C7.90137 59.7737 8.08719 59.5878 8.31946 59.5878H43.4275C43.6597 59.5878 43.8455 59.7737 43.8455 60.0059V61.3415C43.8339 61.5738 43.6597 61.7596 43.4275 61.7596Z" fill="url(#paint10_linear)"/>
<path opacity="0.1" d="M51.4059 4.02824V67.578C51.4059 69.3317 49.9891 70.7485 48.2354 70.7485H3.51134C1.75768 70.7369 0.34082 69.3201 0.34082 67.578V66.4747C27.6212 55.2095 40.3265 12.0068 43.1951 0.857719H48.2354C49.9891 0.857719 51.4059 2.27458 51.4059 4.02824Z" fill="#1A6FB5" fill-opacity="0.4"/>
</g>
<defs>
<linearGradient id="paint0_linear" x1="70.22" y1="93.5396" x2="-4.07261" y2="-3.18792" gradientUnits="userSpaceOnUse">
<stop offset="0.3061" stop-color="#5BA7FC"/>
<stop offset="1" stop-color="#69B8FC"/>
</linearGradient>
<linearGradient id="paint1_linear" x1="6.68455" y1="6.04028" x2="42.9588" y2="58.2552" gradientUnits="userSpaceOnUse">
<stop offset="0.3061" stop-color="white"/>
<stop offset="1" stop-color="white"/>
</linearGradient>
<linearGradient id="paint2_linear" x1="7.69744" y1="7.84565" x2="18.731" y2="25.8671" gradientUnits="userSpaceOnUse">
<stop stop-color="#B0F4FF"/>
<stop offset="0.368525" stop-color="#80E4FD"/>
<stop offset="1" stop-color="#6CDDFC"/>
</linearGradient>
<linearGradient id="paint3_linear" x1="7.91033" y1="28.9618" x2="43.8392" y2="28.9618" gradientUnits="userSpaceOnUse">
<stop stop-color="#6CBCFC"/>
<stop offset="1" stop-color="#458DFC"/>
</linearGradient>
<linearGradient id="paint4_linear" x1="25.5892" y1="12.3212" x2="43.8392" y2="12.3212" gradientUnits="userSpaceOnUse">
<stop stop-color="#6CBCFC"/>
<stop offset="1" stop-color="#458DFC"/>
</linearGradient>
<linearGradient id="paint5_linear" x1="25.5892" y1="17.9682" x2="38.6829" y2="17.9682" gradientUnits="userSpaceOnUse">
<stop stop-color="#6CBCFC"/>
<stop offset="1" stop-color="#458DFC"/>
</linearGradient>
<linearGradient id="paint6_linear" x1="7.91033" y1="35.3057" x2="43.8392" y2="35.3057" gradientUnits="userSpaceOnUse">
<stop stop-color="#6CBCFC"/>
<stop offset="1" stop-color="#458DFC"/>
</linearGradient>
<linearGradient id="paint7_linear" x1="7.91033" y1="41.6497" x2="43.8392" y2="41.6497" gradientUnits="userSpaceOnUse">
<stop stop-color="#6CBCFC"/>
<stop offset="1" stop-color="#458DFC"/>
</linearGradient>
<linearGradient id="paint8_linear" x1="7.91033" y1="47.9936" x2="43.8392" y2="47.9936" gradientUnits="userSpaceOnUse">
<stop stop-color="#6CBCFC"/>
<stop offset="1" stop-color="#458DFC"/>
</linearGradient>
<linearGradient id="paint9_linear" x1="7.91033" y1="54.3375" x2="43.8392" y2="54.3375" gradientUnits="userSpaceOnUse">
<stop stop-color="#6CBCFC"/>
<stop offset="1" stop-color="#458DFC"/>
</linearGradient>
<linearGradient id="paint10_linear" x1="7.91033" y1="60.6814" x2="43.8392" y2="60.6814" gradientUnits="userSpaceOnUse">
<stop stop-color="#6CBCFC"/>
<stop offset="1" stop-color="#458DFC"/>
</linearGradient>
<clipPath id="clip0">
<rect width="51.0651" height="69.8792" fill="white" transform="translate(0.34082 0.857719)"/>
</clipPath>
</defs>
</svg>
