<svg width="47" height="64" viewBox="0 0 47 64" fill="none" xmlns="http://www.w3.org/2000/svg">
<g clip-path="url(#clip0)">
<path d="M46.1757 20.0837L46.0347 49.3601L46.0112 55.0226C45.9877 59.5222 41.7114 63.1523 36.4483 63.1288L10.156 63.0114C4.90459 62.9761 0.651772 59.3107 0.675268 54.7994L0.839741 19.8605C0.851489 16.2186 3.67104 13.1406 7.52442 12.1185L7.53617 10.2388V9.27548L39.5733 9.42821L39.5615 12.2713C43.4032 13.3403 46.1875 16.4301 46.1757 20.0837Z" fill="url(#paint0_linear)"/>
<path d="M41.9581 1.90942V2.16788L41.9346 5.22239L41.9111 8.21816V8.58235C41.9111 9.14626 41.4412 9.60444 40.8773 9.60444H40.6306L39.0798 9.59269L37.3764 9.58094L35.8256 9.56919L34.1221 9.55744L32.5479 9.53395L30.8444 9.5222L29.2937 9.51045L27.5784 9.4987L26.0159 9.48696L24.3125 9.47521L22.7617 9.45171L21.0582 9.43996L19.5075 9.42822L17.7923 9.41647L16.2298 9.40472L14.538 9.39297L12.9873 9.38122L11.2838 9.36947L9.7213 9.35773L8.01782 9.34598L6.45532 9.33423H6.20861C5.6447 9.33423 5.18652 8.86431 5.18652 8.3004V8.28865V8.03019L5.23352 1.99166V1.62746C5.23352 1.06355 5.70344 0.605377 6.2791 0.605377H6.52581L9.79179 0.628873L13.0578 0.65237L14.6203 0.664118L16.3237 0.675866L17.8745 0.687614L21.1287 0.722858L22.8322 0.734607L24.3829 0.746355L26.0864 0.758103L27.6372 0.769851L29.3407 0.781599L30.8914 0.793347L32.5949 0.805095L34.1456 0.816843L35.8726 0.84034L37.4234 0.852088L39.1268 0.863836L40.6893 0.875584H40.9361C41.5117 0.887332 41.9581 1.34551 41.9581 1.90942Z" fill="url(#paint1_linear)"/>
<path d="M41.9581 2.17964L41.9346 5.2224L41.9111 8.21817L40.5131 8.20643L38.6569 8.19468L36.9534 8.18293H35.0855L33.382 8.17118L31.5258 8.15943L29.8223 8.14769H27.9544L26.2509 8.13594L24.3829 8.12419L22.6912 8.11244H20.8233L19.1198 8.10069L17.2518 8.08895L15.5484 8.0772H13.6922L11.9887 8.06545L10.1207 8.0537L8.41726 8.04195H6.56105L5.18652 8.0302L5.23352 1.99167L8.49949 2.00342L12.0592 2.02691L13.7627 2.03866L15.6306 2.05041H17.3341L20.8938 2.07391L22.7617 2.08565H24.4652L26.3331 2.0974L28.0249 2.10915L29.8928 2.1209H31.5963L33.4642 2.13265L35.156 2.14439L37.0239 2.15614H38.7274L40.5954 2.16789L41.9581 2.17964Z" fill="url(#paint2_linear)"/>
<path d="M46.1412 26.2651L0.805176 26.0507L0.710115 46.1517L46.0461 46.3661L46.1412 26.2651Z" fill="#F7F9FC"/>
<path d="M46.1492 26.265L0.813232 26.0507L0.796126 29.6691L46.1321 29.8834L46.1492 26.265Z" fill="#FBFCF7"/>
<path d="M18.4853 34.1329L15.56 34.1212L15.5718 31.1842L11.5422 31.1724L11.5304 34.0977L8.60516 34.086L8.58167 38.1038L11.5069 38.1156L11.4952 41.0526L15.5248 41.0643L15.5366 38.1391L18.4618 38.1508L18.4853 34.1329Z" fill="url(#paint3_linear)"/>
<path d="M38.3632 35.108L23.866 35.0376C23.4783 35.0376 23.1611 34.7204 23.1611 34.3327V34.0037C23.1611 33.616 23.4783 33.2988 23.866 33.2988L38.3632 33.3693C38.7509 33.3693 39.0681 33.6865 39.0681 34.0742V34.4032C39.0681 34.7908 38.7509 35.108 38.3632 35.108Z" fill="url(#paint4_linear)"/>
<path opacity="0.5" d="M38.3515 39.4196L23.8543 39.3491C23.4666 39.3491 23.1494 39.0319 23.1494 38.6442V38.3153C23.1494 37.9276 23.4666 37.6104 23.8543 37.6104L38.3515 37.6809C38.7392 37.6809 39.0564 37.9981 39.0564 38.3858V38.7147C39.0564 39.1024 38.7392 39.4196 38.3515 39.4196Z" fill="url(#paint5_linear)"/>
<path opacity="0.08" d="M5.18652 1.90941V2.16787L5.21002 5.22238L5.23352 8.20641V8.5706C5.23352 9.13451 5.70344 9.59268 6.26735 9.59268H6.51406L8.07656 9.58094L9.78004 9.56919L11.3308 9.55744L13.0343 9.54569L14.585 9.53394L16.2885 9.52219L17.8392 9.51045L19.5427 9.4987L21.1052 9.48695L22.8087 9.4752L24.3595 9.46345L26.0629 9.45171L27.6137 9.43996L29.3172 9.42821L30.8797 9.41646L32.5831 9.40471L34.1339 9.39297L35.8374 9.38122L37.3881 9.36947L39.0916 9.35772L40.6541 9.34597H40.9008C41.4647 9.34597 41.9229 8.87605 41.9229 8.31214V8.30039V8.04193C23.7486 8.82906 6.20861 0.87558 6.20861 0.87558C5.6447 0.887328 5.18652 1.3455 5.18652 1.90941Z" fill="#1A6FB5"/>
</g>
<defs>
<linearGradient id="paint0_linear" x1="0.675268" y1="8.94183" x2="42.7049" y2="66.9497" gradientUnits="userSpaceOnUse">
<stop stop-color="#6CBCFC"/>
<stop offset="1" stop-color="#458DFC"/>
</linearGradient>
<linearGradient id="paint1_linear" x1="-462.683" y1="-28.7667" x2="-19.6295" y2="2.09275" gradientUnits="userSpaceOnUse">
<stop stop-color="#B0F4FF"/>
<stop offset="0.0525488" stop-color="#A9F2FF"/>
<stop offset="0.2879" stop-color="#8DE8FE"/>
<stop offset="0.5247" stop-color="#79E1FD"/>
<stop offset="0.7618" stop-color="#6DDDFC"/>
<stop offset="1" stop-color="#69DCFC"/>
</linearGradient>
<linearGradient id="paint2_linear" x1="5.1916" y1="5.10202" x2="41.9597" y2="5.10202" gradientUnits="userSpaceOnUse">
<stop stop-color="#B0F4FF"/>
<stop offset="0.0525488" stop-color="#A9F2FF"/>
<stop offset="0.2879" stop-color="#8DE8FE"/>
<stop offset="0.5247" stop-color="#79E1FD"/>
<stop offset="0.7618" stop-color="#6DDDFC"/>
<stop offset="1" stop-color="#69DCFC"/>
</linearGradient>
<linearGradient id="paint3_linear" x1="16.8415" y1="32.305" x2="9.94151" y2="40.2618" gradientUnits="userSpaceOnUse">
<stop stop-color="#6CBCFC"/>
<stop offset="1" stop-color="#458DFC"/>
</linearGradient>
<linearGradient id="paint4_linear" x1="39.2079" y1="34.1996" x2="21.9234" y2="34.1996" gradientUnits="userSpaceOnUse">
<stop stop-color="#6CBCFC"/>
<stop offset="1" stop-color="#458DFC"/>
</linearGradient>
<linearGradient id="paint5_linear" x1="23.1483" y1="38.5109" x2="39.0566" y2="38.5109" gradientUnits="userSpaceOnUse">
<stop stop-color="#6CBCFC"/>
<stop offset="1" stop-color="#458DFC"/>
</linearGradient>
<clipPath id="clip0">
<rect width="45.5005" height="62.5235" fill="white" transform="translate(0.675171 0.605377)"/>
</clipPath>
</defs>
</svg>
