<svg width="50" height="71" viewBox="0 0 50 71" fill="none" xmlns="http://www.w3.org/2000/svg">
<g clip-path="url(#clip0)">
<path d="M48.1306 0.571808H2.05449C1.10686 0.571808 0.34082 1.32814 0.34082 2.26374V68.7647C0.34082 69.7003 1.10686 70.4566 2.05449 70.4566H48.1306C49.0782 70.4566 49.8443 69.7003 49.8443 68.7647V2.26374C49.8386 1.32814 49.0725 0.571808 48.1306 0.571808Z" fill="url(#paint0_linear)"/>
<path d="M45.1062 3.58594H5.0733C4.15405 3.58594 3.40503 4.32546 3.40503 5.23866V60.221C3.40503 61.1341 4.15405 61.8681 5.0733 61.8681H45.1062C46.0311 61.8681 46.7745 61.1285 46.7745 60.221V5.23866C46.7745 4.32546 46.0311 3.58594 45.1062 3.58594Z" fill="white"/>
<path d="M33.2751 29.7269H16.9101C16.1611 29.7269 15.554 29.1274 15.554 28.3879V12.2249C15.554 11.4854 16.1611 10.8859 16.9101 10.8859H33.2751C34.0241 10.8859 34.6313 11.4854 34.6313 12.2249V28.3823C34.6313 29.1218 34.0241 29.7269 33.2751 29.7269Z" fill="url(#paint1_linear)"/>
<path d="M25.0924 68.647C26.4839 68.647 27.6119 67.5333 27.6119 66.1595C27.6119 64.7857 26.4839 63.6721 25.0924 63.6721C23.701 63.6721 22.573 64.7857 22.573 66.1595C22.573 67.5333 23.701 68.647 25.0924 68.647Z" fill="white"/>
<path d="M39.3523 38.0969H10.8271C10.1065 38.0969 9.51636 37.5143 9.51636 36.8028C9.51636 36.0913 10.1065 35.5086 10.8271 35.5086H39.3467C40.0673 35.5086 40.6574 36.0913 40.6574 36.8028C40.6574 37.5143 40.073 38.0969 39.3523 38.0969Z" fill="url(#paint2_linear)"/>
<path opacity="0.6" d="M34.5234 45.268H10.3504C9.89081 45.268 9.52197 44.8983 9.52197 44.4501V44.3604C9.52197 43.9066 9.89648 43.5425 10.3504 43.5425H34.5234C34.983 43.5425 35.3518 43.9122 35.3518 44.3604V44.4501C35.3575 44.8983 34.983 45.268 34.5234 45.268Z" fill="url(#paint3_linear)"/>
<path opacity="0.3" d="M29.9215 49.8228H10.2711C9.85682 49.8228 9.51636 49.4867 9.51636 49.0777V48.8312C9.51636 48.4222 9.85682 48.0861 10.2711 48.0861H29.9158C30.33 48.0861 30.6705 48.4222 30.6705 48.8312V49.0777C30.6705 49.4867 30.33 49.8228 29.9215 49.8228Z" fill="url(#paint4_linear)"/>
<path opacity="0.6" d="M32.3955 54.0415H10.3164C9.87946 54.0415 9.52197 53.6885 9.52197 53.2571V53.1003C9.52197 52.6689 9.87946 52.3159 10.3164 52.3159H32.3955C32.8324 52.3159 33.1899 52.6689 33.1899 53.1003V53.2571C33.1899 53.6829 32.8324 54.0415 32.3955 54.0415Z" fill="url(#paint5_linear)"/>
<path d="M25.1418 19.7855C26.7803 19.7855 28.1085 18.4566 28.1085 16.8172C28.1085 15.1778 26.7803 13.8488 25.1418 13.8488C23.5032 13.8488 22.175 15.1778 22.175 16.8172C22.175 18.4566 23.497 19.7855 25.1418 19.7855ZM25.1418 21.2696C23.1619 21.2696 19.2083 22.2632 19.2083 24.2379V24.9831C19.2083 25.393 19.5434 25.7283 19.953 25.7283H30.3429C30.7526 25.7283 31.0877 25.393 31.0877 24.9831V24.2379C31.0753 22.2694 27.1217 21.2696 25.1418 21.2696Z" fill="white"/>
</g>
<defs>
<linearGradient id="paint0_linear" x1="3.33973" y1="33.6946" x2="49.8774" y2="37.6842" gradientUnits="userSpaceOnUse">
<stop stop-color="#6CBCFC"/>
<stop offset="1" stop-color="#458DFC"/>
</linearGradient>
<linearGradient id="paint1_linear" x1="14.0746" y1="14.7627" x2="35.9906" y2="26.0729" gradientUnits="userSpaceOnUse">
<stop stop-color="#B0F4FF"/>
<stop offset="0.0856277" stop-color="#A3F0FE"/>
<stop offset="0.2972" stop-color="#8AE7FD"/>
<stop offset="0.5161" stop-color="#77E1FD"/>
<stop offset="0.7451" stop-color="#6DDDFC"/>
<stop offset="1" stop-color="#69DCFC"/>
</linearGradient>
<linearGradient id="paint2_linear" x1="40.6602" y1="36.8038" x2="9.52171" y2="36.8038" gradientUnits="userSpaceOnUse">
<stop stop-color="#6CBCFC"/>
<stop offset="1" stop-color="#458DFC"/>
</linearGradient>
<linearGradient id="paint3_linear" x1="35.3559" y1="44.4028" x2="9.52165" y2="44.4028" gradientUnits="userSpaceOnUse">
<stop stop-color="#6CBCFC"/>
<stop offset="1" stop-color="#458DFC"/>
</linearGradient>
<linearGradient id="paint4_linear" x1="30.6711" y1="48.9576" x2="9.52171" y2="48.9576" gradientUnits="userSpaceOnUse">
<stop stop-color="#6CBCFC"/>
<stop offset="1" stop-color="#458DFC"/>
</linearGradient>
<linearGradient id="paint5_linear" x1="33.1894" y1="53.1742" x2="9.52165" y2="53.1742" gradientUnits="userSpaceOnUse">
<stop stop-color="#6CBCFC"/>
<stop offset="1" stop-color="#458DFC"/>
</linearGradient>
<clipPath id="clip0">
<rect width="49.4978" height="69.8792" fill="white" transform="translate(0.34082 0.571808)"/>
</clipPath>
</defs>
</svg>
