<svg width="68" height="67" viewBox="0 0 68 67" fill="none" xmlns="http://www.w3.org/2000/svg">
<g clip-path="url(#clip0)">
<path d="M41.5666 32.5821L34.8892 38.9559L6.69159 65.8674C5.95132 66.5756 5.00168 66.9297 4.05204 66.9297C3.01267 66.9297 1.9733 66.5078 1.21807 65.6715C-0.269949 64.0291 -0.0755345 61.46 1.63681 60.0587L34.8892 32.9588L38.5532 29.9753L41.5666 32.5821Z" fill="url(#paint0_linear)"/>
<path d="M34.5976 39.2799L28.0249 45.5481L27.4192 39.1066L31.0159 36.1758L34.5976 39.2799Z" fill="#3A81D6" fill-opacity="0.8"/>
<path d="M67.8724 22.7201C67.8724 34.8725 58.0918 44.7269 46.0381 44.7269C38.441 44.7269 31.7486 40.8168 27.8379 34.88C25.5423 31.3993 24.2039 27.2179 24.2039 22.7201C24.2039 10.5677 33.9844 0.720795 46.0381 0.720795C51.4817 0.720795 56.4543 2.72484 60.2753 6.03981C64.9263 10.078 67.8724 16.0525 67.8724 22.7201Z" fill="url(#paint1_linear)"/>
<path d="M46.0381 39.86C55.4332 39.86 63.0494 32.1862 63.0494 22.7201C63.0494 13.254 55.4332 5.58023 46.0381 5.58023C36.6431 5.58023 29.0269 13.254 29.0269 22.7201C29.0269 32.1862 36.6431 39.86 46.0381 39.86Z" fill="white"/>
<path opacity="0.06" d="M67.8724 22.7201C67.8724 34.8725 58.0918 44.7269 46.0381 44.7269C38.441 44.7269 31.7486 40.8168 27.8379 34.88C52.4613 32.8609 58.9517 11.841 60.2827 6.03979C64.9262 10.078 67.8724 16.0525 67.8724 22.7201Z" fill="#1A6FB5" fill-opacity="0.5"/>
<path d="M46.0381 22.7578C48.0122 22.7578 49.6124 21.1455 49.6124 19.1565C49.6124 17.1675 48.0122 15.5553 46.0381 15.5553C44.0641 15.5553 42.4639 17.1675 42.4639 19.1565C42.4639 21.1455 44.0566 22.7578 46.0381 22.7578ZM46.0381 24.5584C43.6528 24.5584 38.8896 25.7639 38.8896 28.1597V29.0638C38.8896 29.561 39.2934 29.9678 39.7869 29.9678H52.3043C52.7978 29.9678 53.2016 29.561 53.2016 29.0638V28.1597C53.1866 25.7714 48.4234 24.5584 46.0381 24.5584Z" fill="url(#paint2_linear)"/>
</g>
<defs>
<linearGradient id="paint0_linear" x1="4.39024" y1="62.7489" x2="39.8813" y2="30.7264" gradientUnits="userSpaceOnUse">
<stop stop-color="#67C3F3"/>
<stop offset="1" stop-color="#5A98F2"/>
</linearGradient>
<linearGradient id="paint1_linear" x1="37.0073" y1="2.27532" x2="53.7522" y2="39.6364" gradientUnits="userSpaceOnUse">
<stop stop-color="#67C3F3"/>
<stop offset="1" stop-color="#5A98F2"/>
</linearGradient>
<linearGradient id="paint2_linear" x1="40.8701" y1="21.6071" x2="53.8535" y2="27.8921" gradientUnits="userSpaceOnUse">
<stop stop-color="#B0F4FF"/>
<stop offset="0.071077" stop-color="#A6F1FF"/>
<stop offset="0.2937" stop-color="#8BE8FD"/>
<stop offset="0.5209" stop-color="#78E1FD"/>
<stop offset="0.7536" stop-color="#6DDDFC"/>
<stop offset="1" stop-color="#69DCFC"/>
</linearGradient>
<clipPath id="clip0">
<rect width="67.6563" height="66.2013" fill="white" transform="translate(0.216064 0.720795)"/>
</clipPath>
</defs>
</svg>
