<svg width="50" height="71" viewBox="0 0 50 71" fill="none" xmlns="http://www.w3.org/2000/svg">
<g clip-path="url(#clip0)">
<path d="M49.4931 66.9753C49.4931 68.7988 48.0172 70.2808 46.1937 70.2808L3.52701 70.3296C2.07552 70.3296 0.843575 69.3965 0.398368 68.0975C0.282492 67.762 0.221505 67.4083 0.221505 67.0363L0.154419 5.50624C0.154419 3.68272 1.63031 2.20073 3.45383 2.20073L42.632 2.15804L46.1205 2.15194C47.944 2.15194 49.426 3.62783 49.426 5.45135L49.4931 66.9753Z" fill="url(#paint0_linear)"/>
<path d="M45.0715 66.6216L4.64309 66.6642C3.66119 66.6642 2.86836 65.8714 2.86836 64.8895L2.80737 7.62859C2.80737 6.6467 3.60021 5.85386 4.5821 5.85386L45.0045 5.81117C45.9864 5.81117 46.7792 6.60401 46.7792 7.5859L46.8402 64.8468C46.8463 65.8226 46.0534 66.6216 45.0715 66.6216Z" fill="white"/>
<path d="M39.3937 10.5316L9.90632 10.5682C8.93052 10.5682 8.13159 9.77534 8.13159 8.79955L8.12549 3.88397C8.12549 2.90818 8.91832 2.10924 9.89412 2.10924L39.3876 2.07875C40.3634 2.07875 41.1623 2.87158 41.1623 3.84738L41.1684 8.76295C41.1623 9.73875 40.3695 10.5316 39.3937 10.5316ZM9.89412 3.01186C9.41842 3.01186 9.0281 3.40217 9.0281 3.87787L9.0342 8.79345C9.0342 9.26915 9.42452 9.65947 9.90022 9.65947L39.3937 9.62897C39.8694 9.62897 40.2597 9.23865 40.2597 8.76295L40.2536 3.84738C40.2536 3.37168 39.8633 2.98136 39.3876 2.98136L9.89412 3.01186Z" fill="url(#paint1_linear)"/>
<path d="M38.5582 4.20721L11.0224 4.2377C10.7175 4.2377 10.4735 3.99375 10.4735 3.68882V1.02367C10.4735 0.718737 10.7175 0.474788 11.0224 0.474788L38.5521 0.444294C38.857 0.444294 39.101 0.688243 39.101 0.993179V3.65832C39.107 3.96326 38.8631 4.20721 38.5582 4.20721Z" fill="url(#paint2_linear)"/>
<path d="M11.0468 4.2377L38.5337 4.2072C38.8509 4.2072 39.107 3.95106 39.107 3.63392V2.3288L10.4674 2.35929V3.66442C10.4674 3.98155 10.7297 4.2377 11.0468 4.2377Z" fill="#58D6F4"/>
<path d="M20.7071 60.1813L18.3286 45.7883L16.4014 52.0517L10.8882 52.0578C10.5528 52.0578 10.2844 51.7895 10.2844 51.454C10.2844 51.1186 10.5528 50.8503 10.8882 50.8503L15.5171 50.8442L18.6946 40.5312L21.0731 54.9608L24.159 45.0504L25.7996 49.7464L29.4954 40.7874L33.0876 54.9974L34.4415 50.4782L38.4056 50.4721C38.7411 50.4721 39.0094 50.7405 39.0094 51.0759C39.0094 51.4113 38.7411 51.6797 38.4056 51.6797L35.338 51.6858L32.99 59.5227L29.221 44.6174L25.702 53.1373L24.22 48.8987L20.7071 60.1813Z" fill="#58D6F4"/>
<path d="M16.6209 32.4321L8.86942 32.4382C7.61918 32.4382 6.59459 31.4197 6.59459 30.1695L6.5824 19.332C6.5824 18.0818 7.60089 17.0572 8.85112 17.0572L16.6026 17.0511C17.8528 17.0511 18.8774 18.0696 18.8774 19.3198L18.8896 30.1573C18.8896 31.4075 17.8711 32.426 16.6209 32.4321ZM8.84503 17.7159C7.95461 17.7159 7.23496 18.4416 7.23496 19.332L7.24716 30.1695C7.24716 31.0599 7.97291 31.7795 8.86332 31.7795L16.6148 31.7734C17.5052 31.7734 18.2249 31.0477 18.2249 30.1573L18.2127 19.3198C18.2127 18.4294 17.4869 17.7098 16.5965 17.7098L8.84503 17.7159Z" fill="url(#paint3_linear)"/>
<path d="M12.7361 30.3524C16.4015 30.3463 17.5419 28.2301 17.5419 28.2301C17.3773 28.0227 17.1699 27.8398 16.8894 27.6568C15.9258 27.0286 15.1512 26.7603 14.828 26.4919C14.4987 26.2297 14.3157 25.8455 14.3157 25.8455L14.1144 25.9675C14.1144 25.9675 13.9925 25.5466 14.0595 24.9063C14.0595 24.9063 14.3462 24.8331 14.5596 23.8634C14.9012 23.9305 15.3037 23.0645 15.1146 22.7473C14.9927 22.54 14.8463 22.5583 14.7426 22.6071C14.8463 22.1741 15.3159 19.7773 12.73 19.7773C10.1442 19.7773 10.6138 22.1741 10.7235 22.6071C10.6199 22.5583 10.4735 22.54 10.3515 22.7473C10.1625 23.0645 10.5711 23.9305 10.9126 23.8634C11.1261 24.8331 11.4188 24.9002 11.4188 24.9002C11.492 25.5344 11.3639 25.9614 11.3639 25.9614L11.1627 25.8394C11.1627 25.8394 10.9797 26.2175 10.6504 26.4859C10.321 26.7542 9.55259 27.0286 8.58899 27.6568C8.30845 27.8398 8.09499 28.0227 7.93643 28.2301C7.93033 28.2423 9.07689 30.3585 12.7361 30.3524Z" fill="url(#paint4_linear)"/>
<path d="M36.8748 20.5091L21.9513 20.5274C21.6707 20.5274 21.4451 20.3018 21.4451 20.0212V19.9358C21.4451 19.6553 21.6707 19.4296 21.9513 19.4296L36.8748 19.4114C37.1554 19.4114 37.381 19.637 37.381 19.9175V20.0029C37.381 20.2835 37.1493 20.5091 36.8748 20.5091Z" fill="url(#paint5_linear)"/>
<path d="M31.386 23.3511L21.9513 23.3633C21.6707 23.3633 21.4451 23.1376 21.4451 22.8571V22.7717C21.4451 22.4912 21.6707 22.2655 21.9513 22.2655L31.386 22.2533C31.6665 22.2533 31.8922 22.479 31.8922 22.7595V22.8449C31.8922 23.1254 31.6665 23.3511 31.386 23.3511Z" fill="url(#paint6_linear)"/>
<path opacity="0.6" d="M42.0222 26.7298L21.9574 26.7542C21.6768 26.7542 21.4512 26.5285 21.4512 26.248V26.1626C21.4512 25.8821 21.6768 25.6564 21.9574 25.6564L42.0222 25.632C42.3027 25.632 42.5284 25.8577 42.5284 26.1382V26.2236C42.5223 26.5041 42.2966 26.7298 42.0222 26.7298Z" fill="url(#paint7_linear)"/>
<path opacity="0.6" d="M41.5891 36.2255L8.11934 36.2621C7.8327 36.2621 7.59485 36.0304 7.59485 35.7376V35.6888C7.59485 35.4022 7.8266 35.1643 8.11934 35.1643L41.5891 35.1277C41.8758 35.1277 42.1136 35.3595 42.1136 35.6522V35.701C42.1136 35.9938 41.8758 36.2255 41.5891 36.2255Z" fill="url(#paint8_linear)"/>
<path opacity="0.6" d="M42.0222 30.0475L21.9574 30.0719C21.6768 30.0719 21.4512 29.8462 21.4512 29.5657V29.4803C21.4512 29.1998 21.6768 28.9741 21.9574 28.9741L42.0222 28.9497C42.3027 28.9497 42.5284 29.1754 42.5284 29.4559V29.5413C42.5284 29.8219 42.3027 30.0475 42.0222 30.0475Z" fill="url(#paint9_linear)"/>
</g>
<defs>
<linearGradient id="paint0_linear" x1="-6.67806" y1="26.0039" x2="56.3256" y2="46.475" gradientUnits="userSpaceOnUse">
<stop stop-color="#6CBCFC"/>
<stop offset="0.1713" stop-color="#5EABFC"/>
<stop offset="0.4084" stop-color="#509AFC"/>
<stop offset="0.6698" stop-color="#4890FC"/>
<stop offset="1" stop-color="#458DFC"/>
</linearGradient>
<linearGradient id="paint1_linear" x1="-3.68889" y1="-15.2785" x2="41.1636" y2="6.32128" gradientUnits="userSpaceOnUse">
<stop stop-color="#CFE9FF"/>
<stop offset="1" stop-color="#A1D6FB"/>
</linearGradient>
<linearGradient id="paint2_linear" x1="10.4665" y1="2.34171" x2="39.1065" y2="2.34171" gradientUnits="userSpaceOnUse">
<stop stop-color="#B0F4FF"/>
<stop offset="1" stop-color="#69DCFC"/>
</linearGradient>
<linearGradient id="paint3_linear" x1="10.5516" y1="21.9285" x2="17.7459" y2="31.2157" gradientUnits="userSpaceOnUse">
<stop stop-color="#6CBCFC"/>
<stop offset="1" stop-color="#458DFC"/>
</linearGradient>
<linearGradient id="paint4_linear" x1="9.77141" y1="22.533" x2="16.9658" y2="31.8203" gradientUnits="userSpaceOnUse">
<stop stop-color="#B0F4FF"/>
<stop offset="0.0994384" stop-color="#A1EFFE"/>
<stop offset="0.2994" stop-color="#88E7FD"/>
<stop offset="0.5095" stop-color="#77E1FD"/>
<stop offset="0.7344" stop-color="#6CDDFC"/>
<stop offset="1" stop-color="#69DCFC"/>
</linearGradient>
<linearGradient id="paint5_linear" x1="21.4459" y1="19.9744" x2="37.3778" y2="19.9839" gradientUnits="userSpaceOnUse">
<stop stop-color="#6CBCFC"/>
<stop offset="1" stop-color="#458DFC"/>
</linearGradient>
<linearGradient id="paint6_linear" x1="21.4488" y1="22.8083" x2="31.8916" y2="22.8083" gradientUnits="userSpaceOnUse">
<stop stop-color="#6CBCFC"/>
<stop offset="1" stop-color="#458DFC"/>
</linearGradient>
<linearGradient id="paint7_linear" x1="21.4523" y1="26.1965" x2="42.525" y2="26.1965" gradientUnits="userSpaceOnUse">
<stop stop-color="#6CBCFC"/>
<stop offset="1" stop-color="#458DFC"/>
</linearGradient>
<linearGradient id="paint8_linear" x1="7.59456" y1="35.6981" x2="42.1119" y2="35.6981" gradientUnits="userSpaceOnUse">
<stop stop-color="#6CBCFC"/>
<stop offset="1" stop-color="#458DFC"/>
</linearGradient>
<linearGradient id="paint9_linear" x1="21.4557" y1="29.5134" x2="42.5283" y2="29.5134" gradientUnits="userSpaceOnUse">
<stop stop-color="#6CBCFC"/>
<stop offset="1" stop-color="#458DFC"/>
</linearGradient>
<clipPath id="clip0">
<rect width="49.3387" height="69.8792" fill="white" transform="translate(0.154419 0.444294)"/>
</clipPath>
</defs>
</svg>
