<svg width="60" height="53" viewBox="0 0 60 53" fill="none" xmlns="http://www.w3.org/2000/svg">
<g clip-path="url(#clip0)">
<path d="M49.7793 10.3126H10.6344V52.3259H49.7793V10.3126Z" fill="url(#paint0_linear)"/>
<path d="M10.4724 10.3126C10.5196 10.3126 10.5669 10.3329 10.6344 10.3531C10.6344 24.3306 10.6344 38.308 10.6344 52.3057C7.604 52.5419 5.04608 51.7793 3.0146 49.822C1.57703 48.4317 0.881871 46.7984 0.881871 44.9491C0.881871 38.4025 0.881871 31.8626 0.881871 25.3159C0.881871 22.8188 0.875122 20.3216 0.875122 17.8244C0.875122 14.8075 2.50166 12.6141 5.49152 11.1293C7.03033 10.3734 8.73785 10.2586 10.4724 10.3126Z" fill="url(#paint1_linear)"/>
<path d="M42.9424 10.3059C44.6904 10.3059 44.8659 10.3059 46.6072 10.3059C46.6072 24.3306 46.6072 38.308 46.6072 52.3124C34.7219 52.3124 25.7321 52.3124 13.8064 52.3124C13.8064 38.3147 13.8064 24.3373 13.8064 10.3194C15.5477 10.3194 15.9256 10.3194 17.7006 10.3194C17.7006 10.1439 17.7006 10.0089 17.7006 9.88068C17.7006 8.37563 17.7074 6.86382 17.6939 5.35877C17.6804 4.30591 17.9639 3.38802 18.7873 2.67262C19.3677 2.17318 20.0358 1.91672 20.7917 1.91672C23.1337 1.90997 25.4689 1.90997 27.8108 1.90997C31.7456 1.90997 35.6871 1.91672 39.6218 1.90997C40.6544 1.90997 41.5116 2.24742 42.1865 3.03032C42.7264 3.65799 42.9289 4.39364 42.9289 5.21704C42.9221 6.80308 42.9289 8.38913 42.9289 9.97517C42.9221 10.0629 42.9289 10.1641 42.9424 10.3059ZM21.9256 10.3059C22.0876 10.3059 22.2091 10.3059 22.3305 10.3059C24.1933 10.3059 26.0628 10.3059 27.9256 10.3059C31.4081 10.3059 34.8974 10.3059 38.38 10.3126C38.6567 10.3126 38.7174 10.2249 38.7174 9.96167C38.7039 8.78058 38.7174 7.59948 38.7174 6.41838C38.7174 6.32389 38.7039 6.22941 38.6904 6.12817C33.0887 6.12817 27.5206 6.12817 21.9256 6.12817C21.9256 7.51849 21.9256 8.88181 21.9256 10.3059Z" fill="white"/>
<mask id="mask0" mask-type="alpha" maskUnits="userSpaceOnUse" x="13" y="1" width="34" height="52">
<path d="M42.9424 10.3059C44.6904 10.3059 44.8659 10.3059 46.6072 10.3059C46.6072 24.3306 46.6072 38.308 46.6072 52.3124C34.7219 52.3124 25.7321 52.3124 13.8064 52.3124C13.8064 38.3147 13.8064 24.3373 13.8064 10.3194C15.5477 10.3194 15.9256 10.3194 17.7006 10.3194C17.7006 10.1439 17.7006 10.0089 17.7006 9.88069C17.7006 8.37563 17.7074 6.86383 17.6939 5.35877C17.6804 4.30591 17.9639 3.38803 18.7873 2.67262C19.3677 2.17319 20.0358 1.91672 20.7917 1.91672C23.1337 1.90997 25.4689 1.90997 27.8108 1.90997C31.7456 1.90997 35.6871 1.91672 39.6218 1.90997C40.6544 1.90997 41.5116 2.24743 42.1865 3.03033C42.7264 3.65799 42.9289 4.39365 42.9289 5.21704C42.9221 6.80309 42.9289 8.38913 42.9289 9.97518C42.9221 10.0629 42.9289 10.1642 42.9424 10.3059ZM21.9256 10.3059C22.0876 10.3059 22.2091 10.3059 22.3305 10.3059C24.1933 10.3059 26.0628 10.3059 27.9256 10.3059C31.4081 10.3059 34.8974 10.3059 38.38 10.3126C38.6567 10.3126 38.7174 10.2249 38.7174 9.96168C38.7039 8.78058 38.7174 7.59948 38.7174 6.41839C38.7174 6.3239 38.7039 6.22941 38.6904 6.12817C33.0887 6.12817 27.5206 6.12817 21.9256 6.12817C21.9256 7.51849 21.9256 8.88182 21.9256 10.3059Z" fill="#F7F9FC"/>
</mask>
<g mask="url(#mask0)">
<path d="M43.6156 0.00671005H16.3289V10.3194H43.6156V0.00671005Z" fill="url(#paint2_linear)"/>
</g>
<path d="M59.7274 17.7164C59.7274 14.9358 58.2089 12.8638 55.5092 11.3587C53.8489 10.4341 51.9659 10.2586 50.0357 10.2991C49.7387 10.3059 49.7792 10.4611 49.7792 10.6231C49.7792 15.4825 49.7792 20.3351 49.7792 25.1945C49.7792 33.7321 49.7792 42.263 49.7725 50.8006C49.7725 51.2933 49.7725 51.786 49.7725 52.3192C50.9873 52.3597 52.1414 52.3664 53.2753 52.0965C57.1088 51.1921 59.7207 48.3372 59.7207 44.9694C59.7342 35.8918 59.7274 26.8007 59.7274 17.7164Z" fill="url(#paint3_linear)"/>
<path d="M33.406 34.4205C33.406 35.2911 33.406 36.1145 33.406 36.9447C33.406 37.8828 33.406 38.8209 33.406 39.7523C33.406 40.3125 33.1225 40.6095 32.5691 40.6095C31.0438 40.6162 29.5185 40.6162 27.9932 40.6095C27.487 40.6095 27.2035 40.2922 27.2035 39.7591C27.2035 38.0853 27.2035 36.4115 27.2035 34.7377C27.2035 34.6432 27.2035 34.542 27.2035 34.4205C27.0753 34.4205 26.9808 34.4205 26.8796 34.4205C25.2328 34.4205 23.5792 34.4205 21.9324 34.4205C21.2778 34.4205 21.0078 34.1573 21.0078 33.5026C21.0078 32.0516 21.0078 30.6005 21.0078 29.1494C21.0078 28.488 21.271 28.2248 21.9257 28.2248C23.5657 28.2248 25.2058 28.2248 26.8458 28.2248C26.9538 28.2248 27.055 28.2248 27.1968 28.2248C27.1968 28.1168 27.1968 28.0291 27.1968 27.9413C27.1968 26.2676 27.1968 24.5938 27.1968 22.92C27.1968 22.2991 27.4735 22.0291 28.0944 22.0291C29.5455 22.0291 30.9965 22.0291 32.4476 22.0291C33.1292 22.0291 33.3925 22.2856 33.3925 22.9807C33.3992 24.641 33.3925 26.2946 33.3925 27.9548C33.3925 28.0358 33.3925 28.1168 33.3925 28.2316C33.5004 28.2316 33.5949 28.2316 33.6827 28.2316C35.3565 28.2316 37.0302 28.2316 38.704 28.2383C39.3182 28.2383 39.5814 28.5083 39.5814 29.1224C39.5814 30.5803 39.5814 32.0381 39.5814 33.4959C39.5814 34.164 39.3249 34.4205 38.6703 34.4205C37.0032 34.4205 35.3362 34.4205 33.6759 34.4273C33.6084 34.4205 33.5274 34.4205 33.406 34.4205Z" fill="url(#paint4_linear)"/>
</g>
<defs>
<linearGradient id="paint0_linear" x1="10.6354" y1="31.3168" x2="49.7775" y2="31.3168" gradientUnits="userSpaceOnUse">
<stop stop-color="#B0F4FF"/>
<stop offset="1" stop-color="#69DCFC"/>
</linearGradient>
<linearGradient id="paint1_linear" x1="0.881871" y1="31.3234" x2="10.6353" y2="31.3234" gradientUnits="userSpaceOnUse">
<stop stop-color="#6CBCFC"/>
<stop offset="1" stop-color="#458DFC"/>
</linearGradient>
<linearGradient id="paint2_linear" x1="16.326" y1="5.16195" x2="43.6144" y2="5.16195" gradientUnits="userSpaceOnUse">
<stop stop-color="#6CBCFC"/>
<stop offset="1" stop-color="#458DFC"/>
</linearGradient>
<linearGradient id="paint3_linear" x1="49.7741" y1="31.3192" x2="59.728" y2="31.3192" gradientUnits="userSpaceOnUse">
<stop stop-color="#6CBCFC"/>
<stop offset="1" stop-color="#458DFC"/>
</linearGradient>
<linearGradient id="paint4_linear" x1="21.0119" y1="31.326" x2="39.5949" y2="31.326" gradientUnits="userSpaceOnUse">
<stop stop-color="#6CBCFC"/>
<stop offset="1" stop-color="#458DFC"/>
</linearGradient>
<clipPath id="clip0">
<rect width="58.8456" height="52.3395" fill="white" transform="translate(0.881836 0.00671005)"/>
</clipPath>
</defs>
</svg>
